<?xml version="1.0" encoding="UTF-8" standalone="no"?>
<!DOCTYPE svg PUBLIC "-//W3C//DTD SVG 1.1//EN"
 "http://www.w3.org/Graphics/SVG/1.1/DTD/svg11.dtd">
<!-- Generated by graphviz version 2.40.1 (20161225.0304)
 -->
<!-- Title: dependencies Pages: 1 -->
<svg width="769pt" height="284pt"
 viewBox="0.00 0.00 769.00 284.00" xmlns="http://www.w3.org/2000/svg" xmlns:xlink="http://www.w3.org/1999/xlink">
<g id="graph0" class="graph" transform="scale(1 1) rotate(0) translate(4 280)">
<title>dependencies</title>
<polygon fill="#ffffff" stroke="transparent" points="-4,4 -4,-280 765,-280 765,4 -4,4"/>
<text text-anchor="start" x="359.5091" y="-42.4" font-family="sans-serif" font-weight="bold" font-size="14.00" fill="#000000">Legend</text>
<polygon fill="#ffffb3" stroke="transparent" points="146.5,-10 146.5,-30 166.5,-30 166.5,-10 146.5,-10"/>
<text text-anchor="start" x="170.129" y="-15.4" font-family="sans-serif" font-size="14.00" fill="#000000"> &#160;Declarations</text>
<polygon fill="#8dd3c7" stroke="transparent" points="259.5,-10 259.5,-30 279.5,-30 279.5,-10 259.5,-10"/>
<text text-anchor="start" x="283.2251" y="-15.4" font-family="sans-serif" font-size="14.00" fill="#000000"> &#160;Module</text>
<polygon fill="#80b1d3" stroke="transparent" points="345.5,-10 345.5,-30 365.5,-30 365.5,-10 345.5,-10"/>
<text text-anchor="start" x="369.2812" y="-15.4" font-family="sans-serif" font-size="14.00" fill="#000000"> &#160;Bootstrap</text>
<polygon fill="#fdb462" stroke="transparent" points="442.5,-10 442.5,-30 462.5,-30 462.5,-10 442.5,-10"/>
<text text-anchor="start" x="466.1732" y="-15.4" font-family="sans-serif" font-size="14.00" fill="#000000"> &#160;Providers</text>
<polygon fill="#fb8072" stroke="transparent" points="538.5,-10 538.5,-30 558.5,-30 558.5,-10 538.5,-10"/>
<text text-anchor="start" x="562.2258" y="-15.4" font-family="sans-serif" font-size="14.00" fill="#000000"> &#160;Exports</text>
<g id="clust1" class="cluster">
<title>cluster_AppModule</title>
<polygon fill="none" stroke="#000000" stroke-dasharray="1,5" points="8,-70 8,-268 753,-268 753,-70 8,-70"/>
</g>
<g id="clust2" class="cluster">
<title>cluster_AppModule_declarations</title>
<polygon fill="none" stroke="#000000" points="160,-78 160,-130 745,-130 745,-78 160,-78"/>
</g>
<g id="clust9" class="cluster">
<title>cluster_AppModule_bootstrap</title>
<polygon fill="none" stroke="#000000" points="288,-208 288,-260 412,-260 412,-208 288,-208"/>
</g>
<g id="clust10" class="cluster">
<title>cluster_AppModule_providers</title>
<polygon fill="none" stroke="#000000" points="16,-78 16,-130 152,-130 152,-78 16,-78"/>
</g>
<!-- AppComponent -->
<g id="node1" class="node">
<title>AppComponent</title>
<polygon fill="#ffffb3" stroke="#000000" points="736.9399,-122 631.0601,-122 631.0601,-86 736.9399,-86 736.9399,-122"/>
<text text-anchor="middle" x="684" y="-99.8" font-family="Times,serif" font-size="14.00" fill="#000000">AppComponent</text>
</g>
<!-- AppModule -->
<g id="node5" class="node">
<title>AppModule</title>
<polygon fill="#8dd3c7" stroke="#000000" points="391.6571,-187 388.6571,-191 367.6571,-191 364.6571,-187 308.3429,-187 308.3429,-151 391.6571,-151 391.6571,-187"/>
<text text-anchor="middle" x="350" y="-164.8" font-family="Times,serif" font-size="14.00" fill="#000000">AppModule</text>
</g>
<!-- AppComponent&#45;&gt;AppModule -->
<g id="edge1" class="edge">
<title>AppComponent&#45;&gt;AppModule</title>
<path fill="none" stroke="#000000" d="M684,-122.2843C684,-143.3211 684,-175 684,-175 684,-175 401.9631,-175 401.9631,-175"/>
<polygon fill="#000000" stroke="#000000" points="401.9632,-171.5001 391.9631,-175 401.9631,-178.5001 401.9632,-171.5001"/>
</g>
<!-- PostWCommentsComponent -->
<g id="node2" class="node">
<title>PostWCommentsComponent</title>
<polygon fill="#ffffb3" stroke="#000000" points="613.8327,-122 434.1673,-122 434.1673,-86 613.8327,-86 613.8327,-122"/>
<text text-anchor="middle" x="524" y="-99.8" font-family="Times,serif" font-size="14.00" fill="#000000">PostWCommentsComponent</text>
</g>
<!-- PostWCommentsComponent&#45;&gt;AppModule -->
<g id="edge2" class="edge">
<title>PostWCommentsComponent&#45;&gt;AppModule</title>
<path fill="none" stroke="#000000" d="M524,-122.0225C524,-139.3734 524,-163 524,-163 524,-163 401.6773,-163 401.6773,-163"/>
<polygon fill="#000000" stroke="#000000" points="401.6774,-159.5001 391.6773,-163 401.6773,-166.5001 401.6774,-159.5001"/>
</g>
<!-- PostsListComponent -->
<g id="node3" class="node">
<title>PostsListComponent</title>
<polygon fill="#ffffb3" stroke="#000000" points="416.1736,-122 283.8264,-122 283.8264,-86 416.1736,-86 416.1736,-122"/>
<text text-anchor="middle" x="350" y="-99.8" font-family="Times,serif" font-size="14.00" fill="#000000">PostsListComponent</text>
</g>
<!-- PostsListComponent&#45;&gt;AppModule -->
<g id="edge3" class="edge">
<title>PostsListComponent&#45;&gt;AppModule</title>
<path fill="none" stroke="#000000" d="M350,-122.1061C350,-122.1061 350,-140.991 350,-140.991"/>
<polygon fill="#000000" stroke="#000000" points="346.5001,-140.9909 350,-150.991 353.5001,-140.991 346.5001,-140.9909"/>
</g>
<!-- CapitalizePipe -->
<g id="node4" class="node">
<title>CapitalizePipe</title>
<polygon fill="#ffffb3" stroke="#000000" points="265.6458,-122 168.3542,-122 168.3542,-86 265.6458,-86 265.6458,-122"/>
<text text-anchor="middle" x="217" y="-99.8" font-family="Times,serif" font-size="14.00" fill="#000000">CapitalizePipe</text>
</g>
<!-- CapitalizePipe&#45;&gt;AppModule -->
<g id="edge4" class="edge">
<title>CapitalizePipe&#45;&gt;AppModule</title>
<path fill="none" stroke="#000000" d="M217,-122.0225C217,-139.3734 217,-163 217,-163 217,-163 298.2829,-163 298.2829,-163"/>
<polygon fill="#000000" stroke="#000000" points="298.2829,-166.5001 308.2829,-163 298.2828,-159.5001 298.2829,-166.5001"/>
</g>
<!-- AppComponent  -->
<g id="node6" class="node">
<title>AppComponent </title>
<polygon fill="#80b1d3" stroke="#000000" points="404.439,-252 295.561,-252 295.561,-216 404.439,-216 404.439,-252"/>
<text text-anchor="middle" x="350" y="-229.8" font-family="Times,serif" font-size="14.00" fill="#000000">AppComponent </text>
</g>
<!-- AppModule&#45;&gt;AppComponent  -->
<g id="edge5" class="edge">
<title>AppModule&#45;&gt;AppComponent </title>
<path fill="none" stroke="#000000" stroke-dasharray="1,5" d="M350,-187.1061C350,-187.1061 350,-205.991 350,-205.991"/>
<polygon fill="#000000" stroke="#000000" points="346.5001,-205.9909 350,-215.991 353.5001,-205.991 346.5001,-205.9909"/>
</g>
<!-- PostsService -->
<g id="node7" class="node">
<title>PostsService</title>
<ellipse fill="#fdb462" stroke="#000000" cx="84" cy="-104" rx="60.2672" ry="18"/>
<text text-anchor="middle" x="84" y="-99.8" font-family="Times,serif" font-size="14.00" fill="#000000">PostsService</text>
</g>
<!-- PostsService&#45;&gt;AppModule -->
<g id="edge6" class="edge">
<title>PostsService&#45;&gt;AppModule</title>
<path fill="none" stroke="#000000" d="M84,-122.2843C84,-143.3211 84,-175 84,-175 84,-175 298.1449,-175 298.1449,-175"/>
<polygon fill="#000000" stroke="#000000" points="298.1449,-178.5001 308.1449,-175 298.1448,-171.5001 298.1449,-178.5001"/>
</g>
</g>
</svg>
